<svg width="130" height="60" viewBox="0 0 130 60" fill="none" xmlns="http://www.w3.org/2000/svg">
<path d="M37.6617 16.375H17.2794C15.6713 16.375 14.3677 17.6808 14.3677 19.2917V39.7083C14.3677 41.3191 15.6713 42.6249 17.2794 42.6249H37.6617C39.2698 42.6249 40.5734 41.3191 40.5734 39.7083V19.2917C40.5734 17.6808 39.2698 16.375 37.6617 16.375Z" stroke="black" stroke-width="2" stroke-linecap="round" stroke-linejoin="round"/>
<path d="M21.647 29.5H33.294" stroke="black" stroke-width="2" stroke-linecap="round" stroke-linejoin="round"/>
<path d="M27.4705 23.6666V35.3333" stroke="black" stroke-width="2" stroke-linecap="round" stroke-linejoin="round"/>
<path d="M70.2446 29H68.9094C68.81 28.5028 68.6301 28.0436 68.3696 27.6222C68.114 27.196 67.792 26.8243 67.4037 26.5071C67.0155 26.1899 66.5751 25.9437 66.0827 25.7685C65.5903 25.5933 65.0576 25.5057 64.4847 25.5057C63.5661 25.5057 62.7281 25.7448 61.9705 26.223C61.2177 26.7012 60.614 27.4044 60.1594 28.3324C59.7096 29.2557 59.4847 30.3873 59.4847 31.7273C59.4847 33.0767 59.7096 34.2131 60.1594 35.1364C60.614 36.0597 61.2177 36.7604 61.9705 37.2386C62.7281 37.7121 63.5661 37.9489 64.4847 37.9489C65.0576 37.9489 65.5903 37.8613 66.0827 37.6861C66.5751 37.5109 67.0155 37.267 67.4037 36.9545C67.792 36.6373 68.114 36.2656 68.3696 35.8395C68.6301 35.4134 68.81 34.9517 68.9094 34.4545H70.2446C70.1263 35.1222 69.9037 35.7448 69.577 36.3224C69.2551 36.8954 68.8431 37.3973 68.3412 37.8281C67.8441 38.259 67.2712 38.5952 66.6225 38.8366C65.9738 39.0781 65.2612 39.1989 64.4847 39.1989C63.2631 39.1989 62.1788 38.8935 61.2319 38.2827C60.2849 37.6671 59.5415 36.8007 59.0017 35.6832C58.4667 34.5658 58.1992 33.2472 58.1992 31.7273C58.1992 30.2074 58.4667 28.8887 59.0017 27.7713C59.5415 26.6539 60.2849 25.7898 61.2319 25.179C62.1788 24.5634 63.2631 24.2557 64.4847 24.2557C65.2612 24.2557 65.9738 24.3764 66.6225 24.6179C67.2712 24.8546 67.8441 25.1908 68.3412 25.6264C68.8431 26.0573 69.2551 26.5592 69.577 27.1321C69.9037 27.705 70.1263 28.3277 70.2446 29ZM73.1015 39V28.0909H74.3302V29.767H74.4226C74.6404 29.2178 75.0191 28.7751 75.5589 28.4389C76.1034 28.098 76.719 27.9276 77.4055 27.9276C77.5097 27.9276 77.6257 27.9299 77.7535 27.9347C77.8814 27.9394 77.9879 27.9441 78.0731 27.9489V29.2344C78.0163 29.2249 77.9169 29.2107 77.7748 29.1918C77.6328 29.1728 77.4789 29.1634 77.3132 29.1634C76.745 29.1634 76.2384 29.2841 75.7933 29.5256C75.3529 29.7623 75.0049 30.0914 74.7493 30.5128C74.4936 30.9342 74.3657 31.4148 74.3657 31.9545V39H73.1015ZM84.3089 39.2273C83.2909 39.2273 82.4102 38.9905 81.6669 38.517C80.9235 38.0388 80.3482 37.3783 79.941 36.5355C79.5386 35.688 79.3373 34.7126 79.3373 33.6094C79.3373 32.5109 79.5386 31.5355 79.941 30.6832C80.3482 29.8262 80.9093 29.1562 81.6243 28.6733C82.344 28.1856 83.1749 27.9418 84.1172 27.9418C84.709 27.9418 85.2796 28.0507 85.8288 28.2685C86.378 28.4815 86.8705 28.8106 87.3061 29.2557C87.7464 29.696 88.0944 30.2524 88.3501 30.9247C88.6058 31.5923 88.7336 32.383 88.7336 33.2969V33.9219H80.2109V32.8068H87.441C87.441 32.1061 87.299 31.4763 87.0149 30.9176C86.7355 30.3542 86.3449 29.9091 85.843 29.5824C85.3458 29.2557 84.7706 29.0923 84.1172 29.0923C83.4259 29.0923 82.8174 29.277 82.2919 29.6463C81.7663 30.0156 81.3544 30.5033 81.0561 31.1094C80.7625 31.7154 80.6134 32.3783 80.6086 33.098V33.7656C80.6086 34.6321 80.7578 35.3897 81.0561 36.0384C81.3591 36.6823 81.7876 37.1818 82.3416 37.5369C82.8956 37.892 83.5513 38.0696 84.3089 38.0696C84.825 38.0696 85.2772 37.9891 85.6655 37.8281C86.0584 37.6671 86.3875 37.4517 86.6527 37.1818C86.9226 36.9072 87.1262 36.6065 87.2635 36.2798L88.4637 36.6705C88.298 37.1297 88.0258 37.5535 87.647 37.9418C87.2729 38.33 86.8042 38.6425 86.2407 38.8793C85.682 39.1113 85.0381 39.2273 84.3089 39.2273ZM94.5664 39.2486C93.9082 39.2486 93.3069 39.1207 92.7624 38.8651C92.2179 38.6046 91.7846 38.2306 91.4627 37.7429C91.1407 37.2505 90.9797 36.6539 90.9797 35.9531C90.9797 35.4134 91.0815 34.9588 91.2851 34.5895C91.4887 34.2202 91.7775 33.9171 92.1516 33.6804C92.5257 33.4437 92.9684 33.2566 93.4797 33.1193C93.9911 32.982 94.5545 32.8755 95.1701 32.7997C95.7809 32.724 96.297 32.6577 96.7184 32.6009C97.1445 32.544 97.4688 32.4541 97.6914 32.331C97.9139 32.2079 98.0252 32.009 98.0252 31.7344V31.4787C98.0252 30.7353 97.8026 30.1506 97.3576 29.7244C96.9172 29.2936 96.2828 29.0781 95.4542 29.0781C94.6682 29.0781 94.0266 29.2509 93.5294 29.5966C93.037 29.9422 92.6914 30.3494 92.4925 30.8182L91.2922 30.3849C91.5384 29.7884 91.8793 29.3125 92.315 28.9574C92.7506 28.5975 93.2382 28.3395 93.778 28.1832C94.3178 28.0223 94.8647 27.9418 95.4186 27.9418C95.8353 27.9418 96.2686 27.9962 96.7184 28.1051C97.1729 28.214 97.5943 28.4034 97.9826 28.6733C98.3708 28.9384 98.6857 29.3101 98.9272 29.7884C99.1686 30.2618 99.2894 30.8632 99.2894 31.5923V39H98.0252V37.2741H97.9471C97.7955 37.5961 97.5706 37.9086 97.2723 38.2116C96.974 38.5147 96.6 38.7633 96.1502 38.9574C95.7004 39.1515 95.1724 39.2486 94.5664 39.2486ZM94.7368 38.0909C95.4092 38.0909 95.9916 37.9418 96.484 37.6435C96.9764 37.3452 97.3552 36.9498 97.6204 36.4574C97.8902 35.9602 98.0252 35.4134 98.0252 34.8168V33.2401C97.9305 33.33 97.7719 33.4105 97.5493 33.4815C97.3315 33.5526 97.0782 33.6165 96.7894 33.6733C96.5053 33.7254 96.2212 33.7704 95.9371 33.8082C95.653 33.8461 95.3973 33.8793 95.1701 33.9077C94.5545 33.9834 94.029 34.1018 93.5934 34.2628C93.1578 34.4238 92.8239 34.6463 92.5919 34.9304C92.3599 35.2098 92.2439 35.5696 92.2439 36.0099C92.2439 36.6728 92.4807 37.1866 92.9542 37.5511C93.4276 37.911 94.0219 38.0909 94.7368 38.0909ZM106.949 28.0909V29.1918H101.743V28.0909H106.949ZM103.37 25.4773H104.641V36.152C104.641 36.6065 104.719 36.964 104.875 37.2244C105.032 37.4801 105.235 37.6624 105.486 37.7713C105.737 37.8755 106.005 37.9276 106.289 37.9276C106.454 37.9276 106.596 37.9181 106.715 37.8991C106.833 37.8755 106.937 37.8518 107.027 37.8281L107.297 38.9716C107.174 39.0189 107.023 39.0616 106.843 39.0994C106.663 39.142 106.44 39.1634 106.175 39.1634C105.711 39.1634 105.264 39.0616 104.833 38.858C104.407 38.6544 104.056 38.3513 103.782 37.9489C103.507 37.5464 103.37 37.0469 103.37 36.4503V25.4773ZM114.114 39.2273C113.096 39.2273 112.215 38.9905 111.472 38.517C110.728 38.0388 110.153 37.3783 109.746 36.5355C109.343 35.688 109.142 34.7126 109.142 33.6094C109.142 32.5109 109.343 31.5355 109.746 30.6832C110.153 29.8262 110.714 29.1562 111.429 28.6733C112.149 28.1856 112.98 27.9418 113.922 27.9418C114.514 27.9418 115.084 28.0507 115.633 28.2685C116.183 28.4815 116.675 28.8106 117.111 29.2557C117.551 29.696 117.899 30.2524 118.155 30.9247C118.41 31.5923 118.538 32.383 118.538 33.2969V33.9219H110.016V32.8068H117.246C117.246 32.1061 117.104 31.4763 116.82 30.9176C116.54 30.3542 116.15 29.9091 115.648 29.5824C115.151 29.2557 114.575 29.0923 113.922 29.0923C113.231 29.0923 112.622 29.277 112.097 29.6463C111.571 30.0156 111.159 30.5033 110.861 31.1094C110.567 31.7154 110.418 32.3783 110.413 33.098V33.7656C110.413 34.6321 110.562 35.3897 110.861 36.0384C111.164 36.6823 111.592 37.1818 112.146 37.5369C112.7 37.892 113.356 38.0696 114.114 38.0696C114.63 38.0696 115.082 37.9891 115.47 37.8281C115.863 37.6671 116.192 37.4517 116.457 37.1818C116.727 36.9072 116.931 36.6065 117.068 36.2798L118.268 36.6705C118.103 37.1297 117.83 37.5535 117.452 37.9418C117.078 38.33 116.609 38.6425 116.045 38.8793C115.487 39.1113 114.843 39.2273 114.114 39.2273Z" fill="black"/>
</svg>
