<svg width="49" height="48" viewBox="0 0 49 48" fill="none" xmlns="http://www.w3.org/2000/svg">
<path d="M25.4799 1.92001C13.0424 1.92001 2.93994 11.8163 2.93994 24C2.93994 36.1838 13.0424 46.08 25.4799 46.08C35.1996 46.08 41.1331 41.7 44.2224 36.27C47.3117 30.84 47.7022 24.4613 46.7643 20.1L46.5806 19.35H45.8149L25.4799 19.32H24.4999V29.31H35.7087C34.0167 33.15 30.5713 35.79 25.4799 35.79C18.8267 35.79 13.4443 30.5175 13.4443 24C13.4443 17.4825 18.8267 12.21 25.4799 12.21C28.4697 12.21 31.1838 13.2938 33.2893 15.06L33.9937 15.63L40.7006 9.06001L41.4049 8.34001L40.6699 7.68001C36.6657 4.10626 31.3217 1.92001 25.4799 1.92001ZM25.4799 3.84001C30.4527 3.84001 34.9392 5.62126 38.4956 8.49001L33.7793 13.11C31.448 11.4038 28.6152 10.29 25.4799 10.29C17.7663 10.29 11.4843 16.4438 11.4843 24C11.4843 31.5563 17.7663 37.71 25.4799 37.71C31.8997 37.71 36.5164 33.855 38.1587 28.62L38.5568 27.39H26.4599V21.24L44.9268 21.27C45.5776 25.1438 45.145 30.705 42.5074 35.34C39.7053 40.26 34.6138 44.16 25.4799 44.16C14.0989 44.16 4.89994 35.145 4.89994 24C4.89994 12.855 14.0989 3.84001 25.4799 3.84001Z" fill="black"/>
</svg>
