<svg width="130" height="60" viewBox="0 0 130 60" fill="none" xmlns="http://www.w3.org/2000/svg">
<path d="M31.8381 42.625V30.9583C31.8381 30.5716 31.6848 30.2006 31.4117 29.9271C31.1387 29.6536 30.7684 29.5 30.3823 29.5H24.5588C24.1727 29.5 23.8024 29.6536 23.5293 29.9271C23.2563 30.2006 23.1029 30.5716 23.1029 30.9583V42.625" stroke="black" stroke-width="2" stroke-linecap="round" stroke-linejoin="round"/>
<path d="M14.3677 26.5832C14.3676 26.159 14.4599 25.7398 14.6382 25.3549C14.8164 24.97 15.0764 24.6288 15.3999 24.3549L25.591 15.6064C26.1166 15.1615 26.7824 14.9174 27.4705 14.9174C28.1587 14.9174 28.8245 15.1615 29.3501 15.6064L39.5412 24.3549C39.8647 24.6288 40.1246 24.97 40.3029 25.3549C40.4812 25.7398 40.5735 26.159 40.5734 26.5832V39.7082C40.5734 40.4818 40.2666 41.2236 39.7206 41.7706C39.1745 42.3176 38.4339 42.6249 37.6617 42.6249H17.2794C16.5072 42.6249 15.7666 42.3176 15.2205 41.7706C14.6744 41.2236 14.3677 40.4818 14.3677 39.7082V26.5832Z" stroke="black" stroke-width="2" stroke-linecap="round" stroke-linejoin="round"/>
<path d="M58.8526 39.9999V25.4544H60.1807V32.1235H68.4336V25.4544H69.7617V39.9999H68.4336V33.3166H60.1807V39.9999H58.8526ZM77.5955 40.2272C76.6533 40.2272 75.8199 39.988 75.0955 39.5098C74.3758 39.0316 73.8123 38.3711 73.4052 37.5283C72.998 36.6807 72.7944 35.703 72.7944 34.595C72.7944 33.4776 72.998 32.4951 73.4052 31.6476C73.8123 30.7953 74.3758 30.1325 75.0955 29.659C75.8199 29.1807 76.6533 28.9416 77.5955 28.9416C78.5377 28.9416 79.3687 29.1807 80.0884 29.659C80.8081 30.1372 81.3715 30.8001 81.7787 31.6476C82.1907 32.4951 82.3966 33.4776 82.3966 34.595C82.3966 35.703 82.193 36.6807 81.7858 37.5283C81.3786 38.3711 80.8128 39.0316 80.0884 39.5098C79.3687 39.988 78.5377 40.2272 77.5955 40.2272ZM77.5955 39.0695C78.3531 39.0695 78.9946 38.8659 79.5202 38.4587C80.0458 38.0515 80.4435 37.5093 80.7134 36.8323C80.988 36.1552 81.1253 35.4094 81.1253 34.595C81.1253 33.7807 80.988 33.0325 80.7134 32.3507C80.4435 31.6689 80.0458 31.122 79.5202 30.7101C78.9946 30.2982 78.3531 30.0922 77.5955 30.0922C76.8427 30.0922 76.2011 30.2982 75.6708 30.7101C75.1452 31.122 74.7451 31.6689 74.4705 32.3507C74.2006 33.0325 74.0657 33.7807 74.0657 34.595C74.0657 35.4094 74.2006 36.1552 74.4705 36.8323C74.7451 37.5093 75.1452 38.0515 75.6708 38.4587C76.1963 38.8659 76.8379 39.0695 77.5955 39.0695ZM85.1718 39.9999V29.0908H86.4005V30.7669H86.5142C86.732 30.2035 87.0942 29.7608 87.6008 29.4388C88.1122 29.1121 88.7253 28.9487 89.4403 28.9487C90.1931 28.9487 90.811 29.1263 91.294 29.4814C91.7817 29.8318 92.1463 30.3147 92.3878 30.9303H92.4801C92.7263 30.3242 93.1264 29.8436 93.6804 29.4885C94.2391 29.1287 94.9162 28.9487 95.7116 28.9487C96.7249 28.9487 97.5251 29.2683 98.1122 29.9075C98.6993 30.542 98.9929 31.47 98.9929 32.6916V39.9999H97.7287V32.6916C97.7287 31.8299 97.5085 31.1836 97.0681 30.7527C96.6278 30.3218 96.0478 30.1064 95.3281 30.1064C94.4948 30.1064 93.8532 30.3621 93.4034 30.8735C92.9536 31.3848 92.7287 32.0335 92.7287 32.8195V39.9999H91.436V32.578C91.436 31.8394 91.2301 31.2428 90.8181 30.7882C90.4062 30.3337 89.8262 30.1064 89.0781 30.1064C88.5762 30.1064 88.124 30.2295 87.7216 30.4757C87.3238 30.7219 87.009 31.0652 86.777 31.5056C86.5497 31.9412 86.436 32.4431 86.436 33.0112V39.9999H85.1718ZM106.75 40.2272C105.732 40.2272 104.852 39.9904 104.108 39.5169C103.365 39.0387 102.79 38.3782 102.382 37.5354C101.98 36.6879 101.779 35.7125 101.779 34.6093C101.779 33.5108 101.98 32.5354 102.382 31.6831C102.79 30.8261 103.351 30.1561 104.066 29.6732C104.785 29.1855 105.616 28.9416 106.559 28.9416C107.15 28.9416 107.721 29.0505 108.27 29.2683C108.819 29.4814 109.312 29.8105 109.747 30.2556C110.188 30.6959 110.536 31.2522 110.792 31.9246C111.047 32.5922 111.175 33.3829 111.175 34.2968V34.9218H102.652V33.8067H109.882C109.882 33.1059 109.74 32.4762 109.456 31.9175C109.177 31.354 108.786 30.909 108.284 30.5823C107.787 30.2556 107.212 30.0922 106.559 30.0922C105.867 30.0922 105.259 30.2769 104.733 30.6462C104.208 31.0155 103.796 31.5032 103.497 32.1093C103.204 32.7153 103.055 33.3782 103.05 34.0979V34.7655C103.05 35.632 103.199 36.3896 103.497 37.0382C103.801 37.6822 104.229 38.1817 104.783 38.5368C105.337 38.8919 105.993 39.0695 106.75 39.0695C107.266 39.0695 107.719 38.989 108.107 38.828C108.5 38.667 108.829 38.4516 109.094 38.1817C109.364 37.9071 109.568 37.6064 109.705 37.2797L110.905 37.6703C110.739 38.1296 110.467 38.5534 110.088 38.9416C109.714 39.3299 109.246 39.6424 108.682 39.8791C108.123 40.1111 107.479 40.2272 106.75 40.2272Z" fill="black"/>
</svg>
