<svg width="209" height="60" viewBox="0 0 209 60" fill="none" xmlns="http://www.w3.org/2000/svg">
<path d="M19 15.2C21.8533 15.2 24.3733 15.8667 26.56 17.2C28.7733 18.5067 30.48 20.3333 31.68 22.68C32.88 25.0267 33.48 27.68 33.48 30.64C33.48 33.68 32.56 36.4933 30.72 39.08C28.9067 41.64 26.64 43.68 23.92 45.2C21.2 46.6933 18.6133 47.44 16.16 47.44C14.9067 47.44 13.68 47.3733 12.48 47.24C10.4267 47.1067 8.86667 47.04 7.8 47.04H2.2V45.4L5.96 42.44V18.92L1.72 17.56L2.72 15.56H7.76C10.24 15.56 12.68 15.48 15.08 15.32C16.84 15.2133 18.1467 15.16 19 15.16V15.2ZM17.28 44.2C19.12 44.2 20.7867 43.7067 22.28 42.72C23.7733 41.7067 24.9467 40.32 25.8 38.56C26.6533 36.7733 27.08 34.7733 27.08 32.56C27.08 29.92 26.6667 27.52 25.84 25.36C25.04 23.1733 23.8 21.44 22.12 20.16C20.44 18.8533 18.36 18.2 15.88 18.2C14.4133 18.2 13.08 18.6133 11.88 19.44V43.28C13.4 43.8667 15.2 44.16 17.28 44.16V44.2ZM110.969 47H98.0094V45.36L101.769 42.4V21.44L91.3694 47H88.6894L78.2894 21.28V43.04L82.5694 45L81.5694 47H71.8094V45.36L75.5694 42.4V19.6L71.3294 17.56L72.3294 15.56H82.0094L91.6494 39.56L101.249 15.56H111.449V17.2L107.649 20.16V43.68L111.969 45L110.969 47ZM148.313 47H135.033V45.36L139.033 42.6L136.193 35.72H123.193L120.353 42.4L126.993 45L125.993 47H113.553V45.36L117.553 42.28L128.433 16.84L133.673 14.8L145.233 42.72L149.313 45L148.313 47ZM129.833 20.24L124.193 33.44H135.273L129.833 20.24ZM179.421 20.24V47H176.701L157.821 24V42.88L162.621 45L161.621 47H151.341V45.36L155.101 42.32V19.88L150.861 17.56L151.861 15.56H158.301L176.701 37.92V19.6L171.941 17.56L172.941 15.56H183.221V17.2L179.421 20.24ZM199.652 47H186.692V45.36L190.452 42.32V18.88L186.212 17.56L187.212 15.56H200.172V17.2L196.372 20.24V43.64L200.652 45L199.652 47Z" fill="black"/>
<path fill-rule="evenodd" clip-rule="evenodd" d="M65.6225 10.6548C64.4894 6.80776 60.9348 4 56.7252 4H48.2748C44.0652 4 40.5106 6.80776 39.3775 10.6548C39.1318 11.4889 39 12.3719 39 13.2857V46.7143C39 47.6281 39.1318 48.5111 39.3775 49.3452C40.5106 53.1922 44.0652 56 48.2748 56H56.7252C60.9348 56 64.4894 53.1922 65.6225 49.3452C65.8682 48.5111 66 47.6281 66 46.7143V13.2857C66 12.3719 65.8682 11.4889 65.6225 10.6548ZM39.4701 10.7063C39.2314 11.5245 39.1031 12.39 39.1031 13.2857V46.7143C39.1031 47.61 39.2314 48.4755 39.4701 49.2936H43.0577V41.2743C43.058 40.2352 43.4567 39.2383 44.1668 38.5031L47.9535 34.5812H47.3461C46.5109 34.5812 45.8368 33.8805 45.8367 33.0198V26.9802C45.8368 26.1195 46.5109 25.4188 47.3461 25.4188H47.9535L44.1668 21.4969C43.4567 20.7617 43.058 19.7648 43.0577 18.7257V10.7063H39.4701ZM44.2408 38.5749C43.5497 39.2905 43.161 40.2615 43.1608 41.2744V49.2936H61.7362V41.2744C61.736 40.2615 61.3473 39.2905 60.6561 38.5749L56.8001 34.5812H48.0969L44.2408 38.5749ZM48.2748 55.8968C44.1417 55.8968 40.6469 53.1596 39.5007 49.3968H65.4993C64.3531 53.1596 60.8583 55.8968 56.7252 55.8968H48.2748ZM60.7302 21.4969C61.4403 20.7617 61.839 19.7648 61.8392 18.7257V10.7063H65.5299C65.7686 11.5245 65.8969 12.39 65.8969 13.2857V46.7143C65.8969 47.61 65.7686 48.4755 65.5299 49.2936H61.8392V41.2743C61.839 40.2352 61.4403 39.2383 60.7302 38.5031L56.9435 34.5812H57.5509C58.3861 34.5812 59.0602 33.8804 59.0602 33.0198V26.9802C59.0602 26.1196 58.3861 25.4188 57.5509 25.4188H56.9435L60.7302 21.4969ZM45.9398 26.9802C45.9398 26.1732 46.5711 25.522 47.3461 25.522H48.0531L51.8626 29.4674C51.7414 29.6096 51.668 29.7961 51.668 30C51.668 30.2039 51.7415 30.3903 51.8626 30.5325L48.0531 34.478H47.3461C46.5711 34.478 45.9398 33.8268 45.9398 33.0198V26.9802ZM52.4485 30.8066C52.6456 30.8066 52.8253 30.7307 52.9624 30.6066L56.7004 34.478H48.1965L51.9344 30.6066C52.0715 30.7308 52.2513 30.8066 52.4485 30.8066ZM53.2289 30C53.2289 29.796 53.1554 29.6096 53.0343 29.4674L56.8438 25.522H57.5509C58.3259 25.522 58.9571 26.1732 58.9571 26.9802V33.0198C58.9571 33.8268 58.3259 34.478 57.5509 34.478H56.8438L53.0343 30.5325C53.1554 30.3903 53.2289 30.2039 53.2289 30ZM52.4485 30.7034C52.2795 30.7034 52.125 30.639 52.0061 30.5323L52.4485 30.0742L52.8908 30.5323C52.7719 30.6389 52.6174 30.7034 52.4485 30.7034ZM51.7711 30C51.7711 29.8248 51.8328 29.6649 51.9345 29.542L52.3767 30L51.9345 30.4579C51.8328 30.335 51.7711 30.1752 51.7711 30ZM52.9623 30.4579L52.5201 30L52.9623 29.542C53.0641 29.6649 53.1259 29.8248 53.1259 30C53.1259 30.1752 53.0641 30.335 52.9623 30.4579ZM52.0061 29.4676C52.125 29.361 52.2795 29.2966 52.4485 29.2966C52.6174 29.2966 52.7719 29.361 52.8908 29.4676L52.4485 29.9257L52.0061 29.4676ZM52.4485 29.1934C52.2513 29.1934 52.0715 29.2692 51.9344 29.3933L48.1965 25.522H56.7004L52.9624 29.3933C52.8253 29.2692 52.6456 29.1934 52.4485 29.1934ZM44.2408 21.4251C43.5497 20.7095 43.161 19.7385 43.1608 18.7256V10.7063H61.7362V18.7256C61.736 19.7385 61.3473 20.7095 60.6561 21.4251L56.8001 25.4188H56.1446V23.2056C56.1446 22.1914 55.7556 21.2183 55.0627 20.5006C54.3696 19.7828 53.4293 19.3793 52.4485 19.3793C51.4676 19.3793 50.5273 19.7828 49.8343 20.5006C49.1413 21.2183 48.7523 22.1914 48.7523 23.2056V25.4188H48.0969L44.2408 21.4251ZM49.9085 20.5723C50.5824 19.8743 51.4961 19.4824 52.4485 19.4824C53.4008 19.4824 54.3145 19.8743 54.9885 20.5723C55.6625 21.2704 56.0416 22.2176 56.0416 23.2056V25.4188H48.8554V23.2056C48.8554 22.2176 49.2344 21.2704 49.9085 20.5723ZM39.5007 10.6032C40.6469 6.84039 44.1417 4.10317 48.2748 4.10317H56.7252C60.8583 4.10317 64.3531 6.84039 65.4993 10.6032H39.5007Z" fill="black" stroke="black" stroke-width="2"/>
</svg>
