<svg width="60" height="60" viewBox="0 0 60 60" fill="none" xmlns="http://www.w3.org/2000/svg">
<path d="M30 7.5C17.5958 7.5 7.5 17.5958 7.5 30C7.5 42.4042 17.5958 52.5 30 52.5C42.4042 52.5 52.5 42.4042 52.5 30C52.5 17.5958 42.4042 7.5 30 7.5ZM30 11.25C40.3775 11.25 48.75 19.6225 48.75 30C48.75 39.4263 41.8344 47.1774 32.7905 48.5229V35.4675H38.1299L38.9685 30.0439H32.7905V27.0813C32.7905 24.8294 33.5304 22.8296 35.636 22.8296H39.0198V18.0981C38.4254 18.0175 37.1675 17.8418 34.79 17.8418C29.825 17.8418 26.9165 20.463 26.9165 26.4368V30.0439H21.8115V35.4675H26.9165V48.4753C18.0166 47.0075 11.25 39.3245 11.25 30C11.25 19.6225 19.6225 11.25 30 11.25Z" fill="black"/>
</svg>
