<svg width="130" height="60" viewBox="0 0 130 60" fill="none" xmlns="http://www.w3.org/2000/svg">
<path d="M33.3334 37.2917L40.625 30L33.3334 22.7084" stroke="black" stroke-width="2" stroke-linecap="round" stroke-linejoin="round"/>
<path d="M40.625 30H23.125" stroke="black" stroke-width="2" stroke-linecap="round" stroke-linejoin="round"/>
<path d="M23.125 43.125H17.2917C16.5181 43.125 15.7763 42.8177 15.2293 42.2707C14.6823 41.7237 14.375 40.9819 14.375 40.2083V19.7917C14.375 19.0181 14.6823 18.2763 15.2293 17.7293C15.7763 17.1823 16.5181 16.875 17.2917 16.875H23.125" stroke="black" stroke-width="2" stroke-linecap="round" stroke-linejoin="round"/>
<path d="M56.9318 37V22.4545H58.2599V35.8068H65.1918V37H56.9318ZM72.1591 37.2273C71.2169 37.2273 70.3835 36.9882 69.6591 36.5099C68.9394 36.0317 68.3759 35.3712 67.9688 34.5284C67.5616 33.6809 67.358 32.7031 67.358 31.5952C67.358 30.4777 67.5616 29.4953 67.9688 28.6477C68.3759 27.7955 68.9394 27.1326 69.6591 26.6591C70.3835 26.1809 71.2169 25.9418 72.1591 25.9418C73.1013 25.9418 73.9323 26.1809 74.652 26.6591C75.3717 27.1373 75.9351 27.8002 76.3423 28.6477C76.7543 29.4953 76.9602 30.4777 76.9602 31.5952C76.9602 32.7031 76.7566 33.6809 76.3494 34.5284C75.9422 35.3712 75.3764 36.0317 74.652 36.5099C73.9323 36.9882 73.1013 37.2273 72.1591 37.2273ZM72.1591 36.0696C72.9167 36.0696 73.5582 35.866 74.0838 35.4588C74.6094 35.0516 75.0071 34.5095 75.277 33.8324C75.5516 33.1553 75.6889 32.4096 75.6889 31.5952C75.6889 30.7808 75.5516 30.0327 75.277 29.3509C75.0071 28.669 74.6094 28.1222 74.0838 27.7102C73.5582 27.2983 72.9167 27.0923 72.1591 27.0923C71.4063 27.0923 70.7647 27.2983 70.2344 27.7102C69.7088 28.1222 69.3087 28.669 69.0341 29.3509C68.7642 30.0327 68.6293 30.7808 68.6293 31.5952C68.6293 32.4096 68.7642 33.1553 69.0341 33.8324C69.3087 34.5095 69.7088 35.0516 70.2344 35.4588C70.7599 35.866 71.4015 36.0696 72.1591 36.0696ZM83.8974 41.3182C83.154 41.3182 82.503 41.2211 81.9442 41.027C81.3855 40.8376 80.9144 40.5772 80.5309 40.2457C80.1474 39.9143 79.8491 39.5426 79.636 39.1307L80.6729 38.4489C80.8292 38.7235 81.0375 38.9934 81.2979 39.2585C81.5631 39.5237 81.9064 39.7438 82.3278 39.919C82.7539 40.0942 83.2771 40.1818 83.8974 40.1818C84.8633 40.1818 85.6422 39.9403 86.234 39.4574C86.8306 38.9744 87.1289 38.224 87.1289 37.206V34.7486H87.0153C86.8685 35.08 86.6578 35.4115 86.3832 35.7429C86.1085 36.0696 85.7487 36.3419 85.3036 36.5597C84.8633 36.7775 84.3164 36.8864 83.663 36.8864C82.7918 36.8864 82.0176 36.6709 81.3406 36.2401C80.6682 35.8092 80.1379 35.1937 79.7496 34.3935C79.3661 33.5885 79.1744 32.6297 79.1744 31.517C79.1744 30.4138 79.3614 29.4432 79.7354 28.6051C80.1142 27.767 80.6422 27.1136 81.3192 26.6449C81.9963 26.1761 82.7847 25.9418 83.6843 25.9418C84.3519 25.9418 84.9059 26.0601 85.3462 26.2969C85.7866 26.5289 86.1393 26.8177 86.4045 27.1634C86.6744 27.509 86.8851 27.8452 87.0366 28.1719H87.1644V26.0909H88.4002V37.2841C88.4002 38.2074 88.2037 38.9673 87.8107 39.5639C87.4177 40.1605 86.8827 40.6009 86.2056 40.8849C85.5285 41.1738 84.7591 41.3182 83.8974 41.3182ZM83.8121 35.7287C84.5129 35.7287 85.1119 35.5606 85.609 35.2244C86.1062 34.8835 86.4873 34.3958 86.7525 33.7614C87.0176 33.1269 87.1502 32.3717 87.1502 31.4957C87.1502 30.6435 87.02 29.8883 86.7596 29.2301C86.4992 28.5672 86.1204 28.0464 85.6232 27.6676C85.1308 27.2841 84.5271 27.0923 83.8121 27.0923C83.083 27.0923 82.4674 27.2888 81.9656 27.6818C81.4637 28.0748 81.0849 28.6051 80.8292 29.2727C80.5735 29.9356 80.4457 30.6766 80.4457 31.4957C80.4457 32.3291 80.5759 33.0653 80.8363 33.7045C81.0967 34.339 81.4779 34.8362 81.9798 35.196C82.4817 35.5511 83.0924 35.7287 83.8121 35.7287ZM95.9872 37.2273C95.045 37.2273 94.2116 36.9882 93.4872 36.5099C92.7675 36.0317 92.2041 35.3712 91.7969 34.5284C91.3897 33.6809 91.1861 32.7031 91.1861 31.5952C91.1861 30.4777 91.3897 29.4953 91.7969 28.6477C92.2041 27.7955 92.7675 27.1326 93.4872 26.6591C94.2116 26.1809 95.045 25.9418 95.9872 25.9418C96.9295 25.9418 97.7604 26.1809 98.4801 26.6591C99.1998 27.1373 99.7633 27.8002 100.17 28.6477C100.582 29.4953 100.788 30.4777 100.788 31.5952C100.788 32.7031 100.585 33.6809 100.178 34.5284C99.7704 35.3712 99.2045 36.0317 98.4801 36.5099C97.7604 36.9882 96.9295 37.2273 95.9872 37.2273ZM95.9872 36.0696C96.7448 36.0696 97.3864 35.866 97.9119 35.4588C98.4375 35.0516 98.8352 34.5095 99.1051 33.8324C99.3797 33.1553 99.517 32.4096 99.517 31.5952C99.517 30.7808 99.3797 30.0327 99.1051 29.3509C98.8352 28.669 98.4375 28.1222 97.9119 27.7102C97.3864 27.2983 96.7448 27.0923 95.9872 27.0923C95.2344 27.0923 94.5928 27.2983 94.0625 27.7102C93.5369 28.1222 93.1368 28.669 92.8622 29.3509C92.5923 30.0327 92.4574 30.7808 92.4574 31.5952C92.4574 32.4096 92.5923 33.1553 92.8622 33.8324C93.1368 34.5095 93.5369 35.0516 94.0625 35.4588C94.5881 35.866 95.2296 36.0696 95.9872 36.0696ZM110.495 32.831V26.0909H111.76V37H110.495V35.1889H110.396C110.14 35.7476 109.735 36.214 109.181 36.5881C108.627 36.9574 107.95 37.142 107.15 37.142C106.454 37.142 105.836 36.9905 105.297 36.6875C104.757 36.3797 104.333 35.9299 104.025 35.3381C103.717 34.7462 103.564 34.0194 103.564 33.1577V26.0909H104.828V33.0795C104.828 33.9318 105.079 34.6184 105.581 35.1392C106.083 35.6553 106.726 35.9134 107.512 35.9134C108.005 35.9134 108.478 35.795 108.933 35.5582C109.387 35.3215 109.761 34.9759 110.055 34.5213C110.349 34.062 110.495 33.4986 110.495 32.831ZM119.403 26.0909V27.1918H114.197V26.0909H119.403ZM115.824 23.4773H117.095V34.152C117.095 34.6065 117.173 34.964 117.33 35.2244C117.486 35.4801 117.689 35.6624 117.94 35.7713C118.191 35.8755 118.459 35.9276 118.743 35.9276C118.909 35.9276 119.051 35.9181 119.169 35.8991C119.287 35.8755 119.392 35.8518 119.482 35.8281L119.751 36.9716C119.628 37.0189 119.477 37.0616 119.297 37.0994C119.117 37.142 118.894 37.1634 118.629 37.1634C118.165 37.1634 117.718 37.0616 117.287 36.858C116.861 36.6544 116.51 36.3513 116.236 35.9489C115.961 35.5464 115.824 35.0469 115.824 34.4503V23.4773Z" fill="black"/>
</svg>
