<svg width="26" height="47" viewBox="0 0 26 47" fill="none" xmlns="http://www.w3.org/2000/svg">
<path fill-rule="evenodd" clip-rule="evenodd" d="M24.6645 6.75893C23.6572 3.42979 20.4976 1 16.7557 1H9.24428C5.50242 1 2.34277 3.42979 1.33555 6.75893C1.11716 7.48077 1 8.24491 1 9.03571V37.9643C1 38.7551 1.11716 39.5192 1.33555 40.2411C2.34277 43.5702 5.50242 46 9.24428 46H16.7557C20.4976 46 23.6572 43.5702 24.6645 40.2411C24.8828 39.5192 25 38.7551 25 37.9643V9.03571C25 8.24491 24.8828 7.48077 24.6645 6.75893ZM1.41785 6.80357C1.20565 7.51161 1.0916 8.2606 1.0916 9.03571V37.9643C1.0916 38.7394 1.20565 39.4884 1.41785 40.1964H4.60687V33.2566C4.60707 32.3574 4.9615 31.4947 5.59268 30.8585L8.95864 27.4645H8.41877C7.67636 27.4645 7.07712 26.8581 7.07711 26.1133V20.8867C7.07712 20.1419 7.67636 19.5355 8.41877 19.5355H8.95864L5.59268 16.1415C4.9615 15.5053 4.60707 14.6426 4.60687 13.7434V6.80357H1.41785ZM5.65852 30.9206C5.04416 31.5399 4.69866 32.3802 4.69847 33.2567V40.1964H21.2099V33.2567C21.2097 32.3802 20.8642 31.5399 20.2499 30.9206L16.8223 27.4645H9.08612L5.65852 30.9206ZM9.24428 45.9107C5.57038 45.9107 2.46393 43.542 1.44504 40.2857H24.555C23.5361 43.542 20.4296 45.9107 16.7557 45.9107H9.24428ZM20.3157 16.1415C20.9469 15.5053 21.3013 14.6426 21.3015 13.7434V6.80357H24.5822C24.7943 7.51161 24.9084 8.2606 24.9084 9.03571V37.9643C24.9084 38.7394 24.7943 39.4884 24.5822 40.1964H21.3015V33.2566C21.3013 32.3574 20.9469 31.4947 20.3157 30.8585L16.9498 27.4645H17.4897C18.2321 27.4645 18.8313 26.8581 18.8313 26.1133V20.8867C18.8313 20.1419 18.2321 19.5355 17.4897 19.5355H16.9498L20.3157 16.1415ZM7.16871 20.8867C7.16873 20.1883 7.72985 19.6248 8.41877 19.6248H9.0472L12.4334 23.0391C12.3257 23.1622 12.2605 23.3235 12.2605 23.5C12.2605 23.6765 12.3258 23.8378 12.4334 23.9608L9.0472 27.3752H8.41877C7.72985 27.3752 7.16873 26.8117 7.16871 26.1133V20.8867ZM12.9542 24.198C13.1294 24.198 13.2892 24.1324 13.4111 24.0249L16.7337 27.3752H9.17468L12.4973 24.0249C12.6191 24.1324 12.7789 24.198 12.9542 24.198ZM13.6479 23.5C13.6479 23.3235 13.5826 23.1622 13.4749 23.0391L16.8612 19.6248H17.4897C18.1786 19.6248 18.7397 20.1884 18.7397 20.8867V26.1133C18.7397 26.8116 18.1786 27.3752 17.4897 27.3752H16.8612L13.4749 23.9608C13.5826 23.8378 13.6479 23.6765 13.6479 23.5ZM12.9542 24.1087C12.804 24.1087 12.6666 24.0529 12.5609 23.9606L12.9542 23.5642L13.3474 23.9606C13.2417 24.0529 13.1044 24.1087 12.9542 24.1087ZM12.3521 23.5C12.3521 23.3484 12.4069 23.21 12.4973 23.1036L12.8904 23.5L12.4973 23.8963C12.4069 23.7899 12.3521 23.6516 12.3521 23.5ZM13.411 23.8963L13.0179 23.5L13.411 23.1036C13.5014 23.21 13.5563 23.3484 13.5563 23.5C13.5563 23.6516 13.5014 23.7899 13.411 23.8963ZM12.5609 23.0393C12.6666 22.947 12.804 22.8913 12.9542 22.8913C13.1043 22.8913 13.2417 22.947 13.3474 23.0393L12.9542 23.4357L12.5609 23.0393ZM12.9542 22.802C12.779 22.802 12.6191 22.8676 12.4973 22.975L9.17468 19.6248H16.7337L13.4111 22.975C13.2892 22.8676 13.1294 22.802 12.9542 22.802ZM5.65852 16.0794C5.04416 15.4601 4.69866 14.6198 4.69847 13.7433V6.80357H21.2099V13.7433C21.2097 14.6198 20.8642 15.4601 20.2499 16.0794L16.8223 19.5355H16.2397V17.6202C16.2397 16.7425 15.8939 15.9004 15.2779 15.2793C14.6619 14.6582 13.8261 14.309 12.9542 14.309C12.0823 14.309 11.2465 14.6582 10.6305 15.2793C10.0145 15.9004 9.66874 16.7425 9.66874 17.6202V19.5355H9.08612L5.65852 16.0794ZM10.6964 15.3414C11.2955 14.7374 12.1077 14.3983 12.9542 14.3983C13.8007 14.3983 14.6129 14.7374 15.212 15.3414C15.8111 15.9455 16.1481 16.7652 16.1481 17.6202V19.5355H9.76035V17.6202C9.76035 16.7652 10.0973 15.9455 10.6964 15.3414ZM1.44504 6.71429C2.46393 3.45803 5.57038 1.08929 9.24428 1.08929H16.7557C20.4296 1.08929 23.5361 3.45803 24.555 6.71429H1.44504Z" stroke="white" stroke-width="1.5"/>
</svg>
