<svg width="130" height="60" viewBox="0 0 130 60" fill="none" xmlns="http://www.w3.org/2000/svg">
<path d="M37.6616 16.375L39.1175 17.8333" stroke="black" stroke-width="2" stroke-linecap="round" stroke-linejoin="round"/>
<path d="M39.1175 14.9166L32.566 21.4791" stroke="black" stroke-width="2" stroke-linecap="round" stroke-linejoin="round"/>
<path d="M39.1175 23.5179V42.625C39.1175 43.0118 38.9641 43.3827 38.6911 43.6562C38.418 43.9297 38.0477 44.0833 37.6616 44.0833H19.4632C18.4979 44.0833 17.5721 43.6992 16.8895 43.0155C16.207 42.3317 15.8235 41.4044 15.8235 40.4375C15.8235 39.4706 16.207 38.5432 16.8895 37.8595C17.5721 37.1758 18.4979 36.7917 19.4632 36.7917H39.1175" stroke="black" stroke-width="2" stroke-linecap="round" stroke-linejoin="round"/>
<path d="M15.8235 40.4374V18.5625C15.8235 17.5955 16.207 16.6682 16.8895 15.9845C17.5721 15.3007 18.4979 14.9166 19.4632 14.9166H30.883" stroke="black" stroke-width="2" stroke-linecap="round" stroke-linejoin="round"/>
<path d="M30.3822 26.5833C31.9903 26.5833 33.294 25.2775 33.294 23.6667C33.294 22.0558 31.9903 20.75 30.3822 20.75C28.7741 20.75 27.4705 22.0558 27.4705 23.6667C27.4705 25.2775 28.7741 26.5833 30.3822 26.5833Z" stroke="black" stroke-width="2" stroke-linecap="round" stroke-linejoin="round"/>
<path d="M59.8509 40V25.4545H64.5455C65.5777 25.4545 66.4394 25.6534 67.1307 26.0511C67.8267 26.4441 68.3499 26.9792 68.7003 27.6562C69.0554 28.3333 69.233 29.0956 69.233 29.9432C69.233 30.7907 69.0578 31.5554 68.7074 32.2372C68.357 32.9143 67.8362 33.4517 67.1449 33.8494C66.4536 34.2424 65.5943 34.4389 64.5668 34.4389H60.8736V33.2457H64.5313C65.2936 33.2457 65.9257 33.1037 66.4276 32.8196C66.9295 32.5308 67.3035 32.1378 67.5497 31.6406C67.8007 31.1435 67.9262 30.5777 67.9262 29.9432C67.9262 29.3087 67.8007 28.7429 67.5497 28.2457C67.3035 27.7486 66.9271 27.358 66.4205 27.0739C65.9186 26.7898 65.2818 26.6477 64.51 26.6477H61.179V40H59.8509ZM72.0881 40V29.0909H73.3168V30.767H73.4091C73.6269 30.2178 74.0057 29.7751 74.5455 29.4389C75.09 29.098 75.7055 28.9276 76.3921 28.9276C76.4962 28.9276 76.6122 28.9299 76.7401 28.9347C76.8679 28.9394 76.9745 28.9441 77.0597 28.9489V30.2344C77.0029 30.2249 76.9034 30.2107 76.7614 30.1918C76.6194 30.1728 76.4655 30.1634 76.2997 30.1634C75.7316 30.1634 75.2249 30.2841 74.7799 30.5256C74.3395 30.7623 73.9915 31.0914 73.7358 31.5128C73.4801 31.9342 73.3523 32.4148 73.3523 32.9545V40H72.0881ZM79.2312 40V29.0909H80.5025V40H79.2312ZM79.8775 27.2159C79.6171 27.2159 79.3946 27.1283 79.2099 26.9531C79.0252 26.7732 78.9329 26.5578 78.9329 26.3068C78.9329 26.0559 79.0252 25.8428 79.2099 25.6676C79.3946 25.4877 79.6171 25.3977 79.8775 25.3977C80.1379 25.3977 80.3605 25.4877 80.5451 25.6676C80.7298 25.8428 80.8221 26.0559 80.8221 26.3068C80.8221 26.5578 80.7298 26.7732 80.5451 26.9531C80.3605 27.1283 80.1379 27.2159 79.8775 27.2159ZM92.2905 29.0909L88.3061 40H86.9567L82.9723 29.0909H84.3431L87.5817 38.331H87.6811L90.9198 29.0909H92.2905ZM97.4787 40.2486C96.8206 40.2486 96.2193 40.1207 95.6747 39.8651C95.1302 39.6046 94.697 39.2306 94.375 38.7429C94.0531 38.2505 93.8921 37.6539 93.8921 36.9531C93.8921 36.4134 93.9939 35.9588 94.1975 35.5895C94.4011 35.2202 94.6899 34.9171 95.064 34.6804C95.438 34.4437 95.8807 34.2566 96.3921 34.1193C96.9034 33.982 97.4669 33.8755 98.0824 33.7997C98.6932 33.724 99.2093 33.6577 99.6307 33.6009C100.057 33.544 100.381 33.4541 100.604 33.331C100.826 33.2079 100.938 33.009 100.938 32.7344V32.4787C100.938 31.7353 100.715 31.1506 100.27 30.7244C99.8296 30.2936 99.1951 30.0781 98.3665 30.0781C97.5805 30.0781 96.939 30.2509 96.4418 30.5966C95.9494 30.9422 95.6037 31.3494 95.4049 31.8182L94.2046 31.3849C94.4508 30.7884 94.7917 30.3125 95.2273 29.9574C95.6629 29.5975 96.1506 29.3395 96.6904 29.1832C97.2301 29.0223 97.777 28.9418 98.331 28.9418C98.7477 28.9418 99.1809 28.9962 99.6307 29.1051C100.085 29.214 100.507 29.4034 100.895 29.6733C101.283 29.9384 101.598 30.3101 101.84 30.7884C102.081 31.2618 102.202 31.8632 102.202 32.5923V40H100.938V38.2741H100.859C100.708 38.5961 100.483 38.9086 100.185 39.2116C99.8864 39.5147 99.5123 39.7633 99.0625 39.9574C98.6127 40.1515 98.0848 40.2486 97.4787 40.2486ZM97.6492 39.0909C98.3215 39.0909 98.9039 38.9418 99.3963 38.6435C99.8888 38.3452 100.268 37.9498 100.533 37.4574C100.803 36.9602 100.938 36.4134 100.938 35.8168V34.2401C100.843 34.33 100.684 34.4105 100.462 34.4815C100.244 34.5526 99.9906 34.6165 99.7017 34.6733C99.4176 34.7254 99.1336 34.7704 98.8495 34.8082C98.5654 34.8461 98.3097 34.8793 98.0824 34.9077C97.4669 34.9834 96.9413 35.1018 96.5057 35.2628C96.0701 35.4238 95.7363 35.6463 95.5043 35.9304C95.2723 36.2098 95.1563 36.5696 95.1563 37.0099C95.1563 37.6728 95.393 38.1866 95.8665 38.5511C96.34 38.911 96.9342 39.0909 97.6492 39.0909ZM109.862 29.0909V30.1918H104.656V29.0909H109.862ZM106.282 26.4773H107.553V37.152C107.553 37.6065 107.631 37.964 107.788 38.2244C107.944 38.4801 108.148 38.6624 108.398 38.7713C108.649 38.8755 108.917 38.9276 109.201 38.9276C109.367 38.9276 109.509 38.9181 109.627 38.8991C109.746 38.8755 109.85 38.8518 109.94 38.8281L110.21 39.9716C110.086 40.0189 109.935 40.0616 109.755 40.0994C109.575 40.142 109.353 40.1634 109.087 40.1634C108.623 40.1634 108.176 40.0616 107.745 39.858C107.319 39.6544 106.969 39.3513 106.694 38.9489C106.419 38.5464 106.282 38.0469 106.282 37.4503V26.4773ZM117.026 40.2273C116.008 40.2273 115.127 39.9905 114.384 39.517C113.641 39.0388 113.065 38.3783 112.658 37.5355C112.256 36.688 112.054 35.7126 112.054 34.6094C112.054 33.5109 112.256 32.5355 112.658 31.6832C113.065 30.8262 113.626 30.1562 114.341 29.6733C115.061 29.1856 115.892 28.9418 116.834 28.9418C117.426 28.9418 117.997 29.0507 118.546 29.2685C119.095 29.4815 119.588 29.8106 120.023 30.2557C120.463 30.696 120.811 31.2524 121.067 31.9247C121.323 32.5923 121.451 33.383 121.451 34.2969V34.9219H112.928V33.8068H120.158C120.158 33.1061 120.016 32.4763 119.732 31.9176C119.453 31.3542 119.062 30.9091 118.56 30.5824C118.063 30.2557 117.488 30.0923 116.834 30.0923C116.143 30.0923 115.534 30.277 115.009 30.6463C114.483 31.0156 114.071 31.5033 113.773 32.1094C113.48 32.7154 113.33 33.3783 113.326 34.098V34.7656C113.326 35.6321 113.475 36.3897 113.773 37.0384C114.076 37.6823 114.505 38.1818 115.059 38.5369C115.613 38.892 116.268 39.0696 117.026 39.0696C117.542 39.0696 117.994 38.9891 118.382 38.8281C118.775 38.6671 119.105 38.4517 119.37 38.1818C119.64 37.9072 119.843 37.6065 119.981 37.2798L121.181 37.6705C121.015 38.1297 120.743 38.5535 120.364 38.9418C119.99 39.33 119.521 39.6425 118.958 39.8793C118.399 40.1113 117.755 40.2273 117.026 40.2273Z" fill="black"/>
</svg>
