<svg width="130" height="60" viewBox="0 0 130 60" fill="none" xmlns="http://www.w3.org/2000/svg">
<path d="M27.5 43.0833C35.5541 43.0833 42.0833 36.5541 42.0833 28.5C42.0833 20.4458 35.5541 13.9166 27.5 13.9166C19.4458 13.9166 12.9166 20.4458 12.9166 28.5C12.9166 36.5541 19.4458 43.0833 27.5 43.0833Z" stroke="black" stroke-width="2" stroke-linecap="round" stroke-linejoin="round"/>
<path d="M27.5 29.9584C29.9162 29.9584 31.875 27.9996 31.875 25.5834C31.875 23.1671 29.9162 21.2084 27.5 21.2084C25.0838 21.2084 23.125 23.1671 23.125 25.5834C23.125 27.9996 25.0838 29.9584 27.5 29.9584Z" stroke="black" stroke-width="2" stroke-linecap="round" stroke-linejoin="round"/>
<path d="M20.2084 41.132V38.7083C20.2084 37.9347 20.5157 37.1929 21.0626 36.6459C21.6096 36.0989 22.3515 35.7916 23.125 35.7916H31.875C32.6486 35.7916 33.3905 36.0989 33.9374 36.6459C34.4844 37.1929 34.7917 37.9347 34.7917 38.7083V41.132" stroke="black" stroke-width="2" stroke-linecap="round" stroke-linejoin="round"/>
<path d="M59.9318 37V22.4545H64.6264C65.6586 22.4545 66.5204 22.6534 67.2116 23.0511C67.9077 23.4441 68.4309 23.9792 68.7812 24.6562C69.1364 25.3333 69.3139 26.0956 69.3139 26.9432C69.3139 27.7907 69.1387 28.5554 68.7884 29.2372C68.438 29.9143 67.9171 30.4517 67.2259 30.8494C66.5346 31.2424 65.6752 31.4389 64.6477 31.4389H60.9545V30.2457H64.6122C65.3745 30.2457 66.0066 30.1037 66.5085 29.8196C67.0104 29.5308 67.3845 29.1378 67.6307 28.6406C67.8816 28.1435 68.0071 27.5777 68.0071 26.9432C68.0071 26.3087 67.8816 25.7429 67.6307 25.2457C67.3845 24.7486 67.008 24.358 66.5014 24.0739C65.9995 23.7898 65.3627 23.6477 64.5909 23.6477H61.2599V37H59.9318ZM72.169 37V26.0909H73.3977V27.767H73.4901C73.7079 27.2178 74.0866 26.7751 74.6264 26.4389C75.1709 26.098 75.7865 25.9276 76.473 25.9276C76.5772 25.9276 76.6932 25.9299 76.821 25.9347C76.9489 25.9394 77.0554 25.9441 77.1406 25.9489V27.2344C77.0838 27.2249 76.9844 27.2107 76.8423 27.1918C76.7003 27.1728 76.5464 27.1634 76.3807 27.1634C75.8125 27.1634 75.3059 27.2841 74.8608 27.5256C74.4205 27.7623 74.0724 28.0914 73.8168 28.5128C73.5611 28.9342 73.4332 29.4148 73.4332 29.9545V37H72.169ZM83.206 37.2273C82.2637 37.2273 81.4304 36.9882 80.706 36.5099C79.9863 36.0317 79.4228 35.3712 79.0156 34.5284C78.6084 33.6809 78.4048 32.7031 78.4048 31.5952C78.4048 30.4777 78.6084 29.4953 79.0156 28.6477C79.4228 27.7955 79.9863 27.1326 80.706 26.6591C81.4304 26.1809 82.2637 25.9418 83.206 25.9418C84.1482 25.9418 84.9792 26.1809 85.6989 26.6591C86.4186 27.1373 86.982 27.8002 87.3892 28.6477C87.8011 29.4953 88.0071 30.4777 88.0071 31.5952C88.0071 32.7031 87.8035 33.6809 87.3963 34.5284C86.9891 35.3712 86.4233 36.0317 85.6989 36.5099C84.9792 36.9882 84.1482 37.2273 83.206 37.2273ZM83.206 36.0696C83.9635 36.0696 84.6051 35.866 85.1307 35.4588C85.6563 35.0516 86.054 34.5095 86.3239 33.8324C86.5985 33.1553 86.7358 32.4096 86.7358 31.5952C86.7358 30.7808 86.5985 30.0327 86.3239 29.3509C86.054 28.669 85.6563 28.1222 85.1307 27.7102C84.6051 27.2983 83.9635 27.0923 83.206 27.0923C82.4531 27.0923 81.8116 27.2983 81.2812 27.7102C80.7557 28.1222 80.3556 28.669 80.081 29.3509C79.8111 30.0327 79.6761 30.7808 79.6761 31.5952C79.6761 32.4096 79.8111 33.1553 80.081 33.8324C80.3556 34.5095 80.7557 35.0516 81.2812 35.4588C81.8068 35.866 82.4484 36.0696 83.206 36.0696ZM95.271 26.0909V27.1918H89.9087V26.0909H95.271ZM91.5849 37V24.4929C91.5849 23.9058 91.7198 23.411 91.9897 23.0085C92.2643 22.6061 92.6218 22.3007 93.0621 22.0923C93.5025 21.884 93.9689 21.7798 94.4613 21.7798C94.7927 21.7798 95.0674 21.8082 95.2852 21.8651C95.5077 21.9171 95.6829 21.9692 95.8107 22.0213L95.4414 23.1293C95.3467 23.1009 95.2307 23.0677 95.0934 23.0298C94.9561 22.992 94.7833 22.973 94.5749 22.973C94.0257 22.973 93.6019 23.1269 93.3036 23.4347C93.0053 23.7424 92.8562 24.1828 92.8562 24.7557L92.8491 37H91.5849ZM97.8082 37V26.0909H99.0795V37H97.8082ZM98.4545 24.2159C98.1941 24.2159 97.9716 24.1283 97.7869 23.9531C97.6023 23.7732 97.5099 23.5578 97.5099 23.3068C97.5099 23.0559 97.6023 22.8428 97.7869 22.6676C97.9716 22.4877 98.1941 22.3977 98.4545 22.3977C98.715 22.3977 98.9375 22.4877 99.1222 22.6676C99.3068 22.8428 99.3991 23.0559 99.3991 23.3068C99.3991 23.5578 99.3068 23.7732 99.1222 23.9531C98.9375 24.1283 98.715 24.2159 98.4545 24.2159ZM103.687 22.4545V37H102.423V22.4545H103.687ZM111.443 37.2273C110.425 37.2273 109.544 36.9905 108.801 36.517C108.057 36.0388 107.482 35.3783 107.075 34.5355C106.672 33.688 106.471 32.7126 106.471 31.6094C106.471 30.5109 106.672 29.5355 107.075 28.6832C107.482 27.8262 108.043 27.1562 108.758 26.6733C109.478 26.1856 110.309 25.9418 111.251 25.9418C111.843 25.9418 112.413 26.0507 112.963 26.2685C113.512 26.4815 114.004 26.8106 114.44 27.2557C114.88 27.696 115.228 28.2524 115.484 28.9247C115.74 29.5923 115.868 30.383 115.868 31.2969V31.9219H107.345V30.8068H114.575C114.575 30.1061 114.433 29.4763 114.149 28.9176C113.869 28.3542 113.479 27.9091 112.977 27.5824C112.48 27.2557 111.904 27.0923 111.251 27.0923C110.56 27.0923 109.951 27.277 109.426 27.6463C108.9 28.0156 108.488 28.5033 108.19 29.1094C107.896 29.7154 107.747 30.3783 107.743 31.098V31.7656C107.743 32.6321 107.892 33.3897 108.19 34.0384C108.493 34.6823 108.922 35.1818 109.475 35.5369C110.029 35.892 110.685 36.0696 111.443 36.0696C111.959 36.0696 112.411 35.9891 112.799 35.8281C113.192 35.6671 113.521 35.4517 113.787 35.1818C114.056 34.9072 114.26 34.6065 114.397 34.2798L115.598 34.6705C115.432 35.1297 115.16 35.5535 114.781 35.9418C114.407 36.33 113.938 36.6425 113.375 36.8793C112.816 37.1113 112.172 37.2273 111.443 37.2273Z" fill="black"/>
</svg>
